<?xml version="1.0" standalone="no"?>
<!DOCTYPE svg PUBLIC "-//W3C//DTD SVG 20010904//EN"
 "http://www.w3.org/TR/2001/REC-SVG-20010904/DTD/svg10.dtd">
<svg version="1.0" xmlns="http://www.w3.org/2000/svg"
 width="512.000000pt" height="512.000000pt" viewBox="0 0 512.000000 512.000000"
 preserveAspectRatio="xMidYMid meet">
<metadata>
Created by potrace 1.11, written by Peter Selinger 2001-2013
</metadata>
<g transform="translate(0.000000,512.000000) scale(0.100000,-0.100000)"
fill="#000000" stroke="none">
<path d="M2320 5110 c-502 -52 -982 -248 -1365 -557 -288 -232 -517 -518 -684
-854 -124 -249 -204 -502 -247 -784 -26 -169 -26 -541 0 -710 71 -465 260
-899 543 -1250 232 -288 518 -517 854 -684 249 -124 502 -204 784 -247 169
-26 541 -26 710 0 465 71 899 260 1250 543 288 232 517 518 684 854 124 249
204 502 247 784 26 169 26 541 0 710 -71 465 -260 899 -543 1250 -232 288
-518 517 -854 684 -246 123 -506 205 -779 246 -124 19 -478 28 -600 15z m-412
-1446 c60 -30 123 -103 177 -206 l36 -68 62 52 c77 64 199 123 297 144 93 20
305 14 395 -10 102 -28 182 -71 241 -130 102 -102 140 -231 130 -437 -9 -177
-27 -274 -107 -589 -94 -373 -95 -439 -6 -427 65 9 139 68 377 303 150 148
235 224 249 224 34 0 54 -44 59 -128 9 -167 -58 -338 -198 -505 -93 -111 -142
-144 -425 -285 -211 -105 -277 -126 -368 -119 -228 19 -327 196 -327 581 0
192 17 313 77 567 41 176 48 219 48 311 0 100 -2 108 -25 133 -82 89 -241 71
-361 -42 -129 -120 -272 -390 -334 -630 -38 -145 -31 -250 34 -493 39 -144 40
-193 5 -246 -62 -96 -325 -234 -447 -234 -169 0 -207 161 -187 785 15 468 39
651 120 895 61 184 201 449 277 522 66 64 119 73 201 32z"/>
</g>
</svg>
